<?xml version="1.0" encoding="utf-8"?>
<!-- Generator: Adobe Illustrator 26.5.2, SVG Export Plug-In . SVG Version: 6.00 Build 0)  -->
<svg version="1.1" id="Layer_1" xmlns="http://www.w3.org/2000/svg" xmlns:xlink="http://www.w3.org/1999/xlink" x="0px" y="0px"
	 viewBox="0 0 724 561" style="enable-background:new 0 0 724 561;" xml:space="preserve">
<style type="text/css">
	.st0{fill-rule:evenodd;clip-rule:evenodd;fill:url(#SVGID_1_);}
	.st1{fill-rule:evenodd;clip-rule:evenodd;fill:url(#SVGID_00000092416808191659015050000003526313967732475796_);}
</style>
<g>
	
		<linearGradient id="SVGID_1_" gradientUnits="userSpaceOnUse" x1="236.6713" y1="356.4265" x2="237.6713" y2="355.4265" gradientTransform="matrix(721.094 0 0 -482.937 -170661.375 172134.5781)">
		<stop  offset="0" style="stop-color:#CBCED0"/>
		<stop  offset="1" style="stop-color:#84838B"/>
	</linearGradient>
	<path class="st0" d="M361.5,485.9C162.3,485.9,0.9,377.8,0.9,244.5C0.9,111.1,162.3,3,361.5,3C560.6,3,722,111.1,722,244.5
		C722,377.8,560.6,485.9,361.5,485.9z M416.6,97.4c-151.4,0-274,73.9-274,165.1s122.7,165.1,274,165.1c151.4,0,263-50.5,263-165.1
		C679.7,148,568,97.4,416.6,97.4z"/>
	
		<linearGradient id="SVGID_00000131368418633878686120000014972101643979105973_" gradientUnits="userSpaceOnUse" x1="236.3416" y1="356.4443" x2="237.3415" y2="355.4444" gradientTransform="matrix(398 0 0 -406.124 -93791 144939.0938)">
		<stop  offset="0" style="stop-color:#276DC3"/>
		<stop  offset="1" style="stop-color:#165CAA"/>
	</linearGradient>
	<path style="fill-rule:evenodd;clip-rule:evenodd;fill:url(#SVGID_00000131368418633878686120000014972101643979105973_);" d="
		M550,377c0,0,21.8,6.6,34.5,13c4.4,2.2,12,6.7,17.5,12.5c5.4,5.7,8,11.5,8,11.5l86,145l-139,0.1L492,437c0,0-13.3-22.9-21.5-29.5
		c-6.8-5.5-9.7-7.5-16.5-7.5c-4.7,0-33,0-33,0l0,159L298,559V152.9h247c0,0,112.5,2,112.5,109.1S550,377,550,377z M496.5,241
		l-74.5,0l0,69.1l74.5,0c0,0,34.5-0.1,34.5-35.1C531,239.2,496.5,241,496.5,241z"/>
</g>
</svg>
